<?xml version="1.0" encoding="utf-8"?>
<!-- Generator: Adobe Illustrator 28.2.0, SVG Export Plug-In . SVG Version: 6.00 Build 0)  -->
<svg version="1.1" id="Layer_1" xmlns="http://www.w3.org/2000/svg" xmlns:xlink="http://www.w3.org/1999/xlink" x="0px" y="0px"
	 viewBox="0 0 180.7 178.6" style="enable-background:new 0 0 180.7 178.6;" xml:space="preserve">
<style type="text/css">
	.st0{fill:#FBE100;}
</style>
<path class="st0" d="M90.4,3.3c-47.5,0-86,38.5-86,86s38.5,86,86,86c47.5,0,86-38.5,86-86S137.8,3.3,90.4,3.3z M114.4,139.1
	c-6.1,5.8-15.7,11-23.4,15.6c-0.4,0.2-1,0.3-1.4,0.1c-5.2-2.1-15.4-8.1-27.3-20.9c-8.9-9.6-15.6-21.2-20-34.4
	c-5-15.4-6.7-33.1-5.2-52.7c0.1-0.8,0.6-1.6,1.3-1.8c4.5-1.4,12.5-3.6,23.1-5.2c1.1-0.2,2,0.8,2,2c0,15.1,2.1,29,6.5,41.5
	c1.8,5.1,4,10,6.5,14.7c1.8,3.3,3.8,6.5,6,9.6c3.1,4.3,6.5,8.3,10.2,12.1c7.4,7.3,14.9,12.5,21.3,16
	C115.4,136.4,115.5,138,114.4,139.1z M134.9,110.6c-1.8,3.8-3.8,7.5-6.1,11c-1.2,2-2.6,3.9-4,5.7c-0.5,0.6-1.4,0.9-2.1,0.5
	c-6.3-3-15.1-8.2-23.6-16.7c0,0,0,0,0,0c-2-2-1.4-3.6,1.2-3.6h33C134.9,107.6,135.7,108.9,134.9,110.6z M143.7,78.5
	c-0.2,2.1-0.5,4.2-0.8,6.3c-0.6,3.4-1.3,6.8-2.2,10.1c-0.2,0.8-1,1.4-1.7,1.4H88.3c-0.5,0-1.2-0.4-1.5-0.9
	c-3.1-5.1-5.7-10.5-7.7-16.4c0,0,0-0.1-0.1-0.2c-0.5-1.5,0.2-2.8,1.7-2.8h61.2C143,76.2,143.8,77.2,143.7,78.5z M142.4,64.9H76.8
	c-0.8,0-1.6-0.8-1.8-1.6c-1.2-7.3-1.8-14.9-1.7-23c0-1,0.8-1.9,1.7-2c17.2-1.3,40.5-0.5,66.3,7.1c0.6,0.2,1.2,0.9,1.3,1.6
	c0.6,3.5,1.4,9,1.6,15.9C144.3,64,143.5,64.9,142.4,64.9z"/>
</svg>
