<?xml version="1.0" encoding="utf-8"?>
<!-- Generator: Adobe Illustrator 28.2.0, SVG Export Plug-In . SVG Version: 6.00 Build 0)  -->
<svg version="1.1" id="Layer_1" xmlns="http://www.w3.org/2000/svg" xmlns:xlink="http://www.w3.org/1999/xlink" x="0px" y="0px"
	 viewBox="0 0 183.2 178.6" style="enable-background:new 0 0 183.2 178.6;" xml:space="preserve">
<g>
	<path d="M-1080.6,125.9l-3.6,41.5h-75.7c-11.5,0-20.8-9.3-20.8-20.8V27.7c0-0.4,0-0.8,0-1.2V7.4h55.4v118.5H-1080.6z"/>
	<polygon points="-846.2,7.4 -846.2,50.1 -896.9,50.1 -896.9,72.1 -861.5,72.1 -864.8,109.4 -896.9,109.4 -896.9,168.1 
		-952.3,168.1 -952.3,7.4 	"/>
	<path d="M-405,51.1h-34.2v116.9h-55.1V51.1h-36l2.3-43.7h126L-405,51.1z"/>
	<g>
		<path d="M-1209.2,22.7c-11.4-12.8-30.1-19.2-56.5-19.2c-26.3,0-45.2,6.5-56.6,19.5c-11.5,12.9-17.3,33.7-17.3,62.4
			c0,28.7,5.8,49.9,17.3,63.5c11.4,13.7,30.1,20.5,56.1,20.5c25.9,0,44.8-6.9,56.4-20.7c11.6-13.8,17.5-35,17.5-63.7
			C-1192.2,56.2-1197.9,35.4-1209.2,22.7z M-1241.3,63.5l-6.1,25l-6.7,27.5c-1,4.4-3.9,7.8-7.8,9.6l-0.1,0.1c-2.9,1.4-6.3,1.9-9.7,1
			l-5.8-1.4c-7.8-1.9-12.7-9.8-10.7-17.6l6.2-25.3l6.6-27.1c0.8-3.5,2.9-6.4,5.6-8.3c3.3-2.5,7.7-3.5,12-2.4l5.8,1.4
			C-1244.2,47.8-1239.4,55.7-1241.3,63.5z"/>
	</g>
	<polygon points="-963.9,128.8 -963.9,168.1 -1070,168.1 -1070,7.4 -967.5,7.4 -967.5,50.1 -1014.6,50.1 -1014.6,69.5 -974.8,69.5 
		-978,106.8 -1014.6,106.8 -1014.6,128.8 	"/>
	<path d="M-857.9,110.1"/>
	<polygon points="-1080.6,167.4 -1080.6,125.9 -1084.2,167.4 	"/>
	<g>
		<path d="M-706.1,29.4c-11.4-12.8-30.1-19.2-56.5-19.2c-26.3,0-45.2,6.5-56.6,19.5c-11.5,12.9-17.3,33.7-17.3,62.4
			c0,28.7,5.8,49.9,17.3,63.5c11.4,13.7,30.1,20.5,56.1,20.5c25.9,0,44.8-6.9,56.4-20.7c11.6-13.8,17.5-35,17.5-63.7
			C-689.1,62.8-694.8,42.1-706.1,29.4z M-738.2,70.1l-6.1,25l-6.7,27.5c-1,4.4-3.9,7.8-7.8,9.6l-0.1,0.1c-2.9,1.4-6.3,1.9-9.7,1
			l-5.8-1.4c-7.8-1.9-12.7-9.8-10.7-17.6l6.2-25.3l6.6-27.1c0.8-3.5,2.9-6.4,5.6-8.3c3.3-2.5,7.7-3.5,12-2.4l5.8,1.4
			C-741.1,54.4-736.3,62.3-738.2,70.1z"/>
	</g>
	<g>
		<path d="M-549.6,29.4c-11.4-12.8-30.1-19.2-56.5-19.2c-26.3,0-45.2,6.5-56.6,19.5C-674.2,42.6-680,63.4-680,92.1
			c0,28.7,5.8,49.9,17.3,63.5c11.4,13.7,30.1,20.5,56.1,20.5c25.9,0,44.8-6.9,56.4-20.7c11.6-13.8,17.5-35,17.5-63.7
			C-532.7,62.8-538.3,42.1-549.6,29.4z M-581.7,70.1l-6.1,25l-6.7,27.5c-1,4.4-3.9,7.8-7.8,9.6l-0.1,0.1c-2.9,1.4-6.3,1.9-9.7,1
			l-5.8-1.4c-7.8-1.9-12.7-9.8-10.7-17.6l6.2-25.3l6.6-27.1c0.8-3.5,2.9-6.4,5.6-8.3c3.3-2.5,7.7-3.5,12-2.4l5.8,1.4
			C-584.7,54.4-579.8,62.3-581.7,70.1z"/>
	</g>
</g>
<path d="M91.6,3.1C44,3.1,5.4,41.7,5.4,89.3s38.6,86.2,86.2,86.2c47.6,0,86.2-38.6,86.2-86.2S139.2,3.1,91.6,3.1z M115.7,139.2
	c-6.1,5.8-15.7,11-23.5,15.7c-0.4,0.2-1,0.3-1.4,0.1c-5.2-2.1-15.4-8.1-27.4-21c-9-9.7-15.7-21.3-20-34.5c-5-15.4-6.8-33.2-5.2-52.8
	c0.1-0.8,0.6-1.6,1.3-1.8c4.5-1.4,12.5-3.6,23.2-5.2c1.1-0.2,2.1,0.8,2.1,2.1c0,15.1,2.1,29,6.5,41.6c1.8,5.2,4,10.1,6.5,14.7
	c1.8,3.3,3.8,6.5,6,9.6c3.1,4.3,6.5,8.4,10.3,12.1c7.4,7.4,15,12.5,21.3,16C116.7,136.5,116.8,138.1,115.7,139.2z M136.2,110.6
	c-1.8,3.8-3.8,7.5-6.1,11c-1.2,2-2.6,3.9-4,5.8c-0.5,0.6-1.4,0.9-2.1,0.5c-6.3-3-15.1-8.2-23.7-16.7c0,0,0,0,0,0
	c-2-2-1.4-3.6,1.2-3.6h33.1C136.3,107.6,137,109,136.2,110.6z M145,78.5c-0.2,2.1-0.5,4.2-0.8,6.3c-0.6,3.5-1.3,6.8-2.2,10.1
	c-0.2,0.8-1,1.4-1.7,1.4H89.5c-0.5,0-1.2-0.4-1.5-0.9c-3.1-5.1-5.7-10.6-7.7-16.4c0,0,0-0.1-0.1-0.2c-0.5-1.5,0.2-2.8,1.7-2.8h61.3
	C144.4,76.1,145.2,77.2,145,78.5z M143.8,64.9H78c-0.8,0-1.6-0.8-1.8-1.7c-1.2-7.3-1.8-15-1.7-23.1c0-1,0.8-1.9,1.7-2
	c17.2-1.3,40.6-0.5,66.5,7.1c0.6,0.2,1.2,0.9,1.3,1.6c0.6,3.5,1.4,9.1,1.6,15.9C145.6,63.9,144.8,64.9,143.8,64.9z"/>
</svg>
