<?xml version="1.0" encoding="utf-8"?>
<!-- Generator: Adobe Illustrator 28.2.0, SVG Export Plug-In . SVG Version: 6.00 Build 0)  -->
<svg version="1.1" id="Layer_1" xmlns="http://www.w3.org/2000/svg" xmlns:xlink="http://www.w3.org/1999/xlink" x="0px" y="0px"
	 viewBox="0 0 947.9 178.6" style="enable-background:new 0 0 947.9 178.6;" xml:space="preserve">
<g>
	<path d="M262.5,125.9l-3.6,41.5h-75.7c-11.5,0-20.8-9.3-20.8-20.8V27.7c0-0.4,0-0.8,0-1.2V7.4h55.4v118.5H262.5z"/>
	<polygon points="496.9,7.4 496.9,50.1 446.2,50.1 446.2,72.1 481.6,72.1 478.4,109.4 446.2,109.4 446.2,168.1 390.9,168.1 
		390.9,7.4 	"/>
	<path d="M938.1,51.1h-34.2v116.9h-55.1V51.1h-36l2.3-43.7h126L938.1,51.1z"/>
	<g>
		<path d="M134,22.7C122.6,9.9,103.9,3.5,77.5,3.5S32.4,10,20.9,23C9.4,35.9,3.7,56.7,3.7,85.4c0,28.7,5.8,49.9,17.3,63.5
			c11.4,13.7,30.1,20.5,56.1,20.5c25.9,0,44.8-6.9,56.4-20.7c11.6-13.8,17.5-35,17.5-63.7C150.9,56.2,145.3,35.4,134,22.7z
			 M101.9,63.5l-6.1,25l-6.7,27.5c-1,4.4-3.9,7.8-7.8,9.6l-0.1,0.1c-2.9,1.4-6.3,1.9-9.7,1l-5.8-1.4c-7.8-1.9-12.7-9.8-10.7-17.6
			l6.2-25.3l6.6-27.1c0.8-3.5,2.9-6.4,5.6-8.3c3.3-2.5,7.7-3.5,12-2.4l5.8,1.4C99,47.8,103.8,55.7,101.9,63.5z"/>
	</g>
	<polygon points="379.3,128.8 379.3,168.1 273.1,168.1 273.1,7.4 375.6,7.4 375.6,50.1 328.5,50.1 328.5,69.5 368.4,69.5 
		365.1,106.8 328.5,106.8 328.5,128.8 	"/>
	<path d="M485.2,110.1"/>
	<polygon points="262.5,167.4 262.5,125.9 258.9,167.4 	"/>
	<g>
		<path d="M637.1,29.4c-11.4-12.8-30.1-19.2-56.5-19.2c-26.3,0-45.2,6.5-56.6,19.5c-11.5,12.9-17.3,33.7-17.3,62.4
			c0,28.7,5.8,49.9,17.3,63.5c11.4,13.7,30.1,20.5,56.1,20.5c25.9,0,44.8-6.9,56.4-20.7c11.6-13.8,17.5-35,17.5-63.7
			C654,62.8,648.3,42.1,637.1,29.4z M605,70.1l-6.1,25l-6.7,27.5c-1,4.4-3.9,7.8-7.8,9.6l-0.1,0.1c-2.9,1.4-6.3,1.9-9.7,1l-5.8-1.4
			c-7.8-1.9-12.7-9.8-10.7-17.6l6.2-25.3l6.6-27.1c0.8-3.5,2.9-6.4,5.6-8.3c3.3-2.5,7.7-3.5,12-2.4l5.8,1.4
			C602,54.4,606.9,62.3,605,70.1z"/>
	</g>
	<g>
		<path d="M793.5,29.4c-11.4-12.8-30.1-19.2-56.5-19.2c-26.3,0-45.2,6.5-56.6,19.5c-11.5,12.9-17.3,33.7-17.3,62.4
			c0,28.7,5.8,49.9,17.3,63.5c11.4,13.7,30.1,20.5,56.1,20.5c25.9,0,44.8-6.9,56.4-20.7c11.6-13.8,17.5-35,17.5-63.7
			C810.4,62.8,804.8,42.1,793.5,29.4z M761.4,70.1l-6.1,25l-6.7,27.5c-1,4.4-3.9,7.8-7.8,9.6l-0.1,0.1c-2.9,1.4-6.3,1.9-9.7,1
			l-5.8-1.4c-7.8-1.9-12.7-9.8-10.7-17.6l6.2-25.3l6.6-27.1c0.8-3.5,2.9-6.4,5.6-8.3c3.3-2.5,7.7-3.5,12-2.4l5.8,1.4
			C758.5,54.4,763.3,62.3,761.4,70.1z"/>
	</g>
</g>
<g>
	<path d="M-698.3,125.9l-3.6,41.5h-75.7c-11.5,0-20.8-9.3-20.8-20.8V27.7c0-0.4,0-0.8,0-1.2V7.4h55.4v118.5H-698.3z"/>
	<polygon points="-463.9,7.4 -463.9,50.1 -514.5,50.1 -514.5,72.1 -479.2,72.1 -482.4,109.4 -514.5,109.4 -514.5,168.1 
		-569.9,168.1 -569.9,7.4 	"/>
	<path d="M-22.7,51.1h-34.2v116.9h-55.1V51.1h-36l2.3-43.7h126L-22.7,51.1z"/>
	<g>
		<path d="M-826.8,22.7c-11.4-12.8-30.1-19.2-56.5-19.2c-26.3,0-45.2,6.5-56.6,19.5c-11.5,12.9-17.3,33.7-17.3,62.4
			c0,28.7,5.8,49.9,17.3,63.5c11.4,13.7,30.1,20.5,56.1,20.5c25.9,0,44.8-6.9,56.4-20.7c11.6-13.8,17.5-35,17.5-63.7
			C-809.9,56.2-815.5,35.4-826.8,22.7z M-858.9,63.5l-6.1,25l-6.7,27.5c-1,4.4-3.9,7.8-7.8,9.6l-0.1,0.1c-2.9,1.4-6.3,1.9-9.7,1
			l-5.8-1.4c-7.8-1.9-12.7-9.8-10.7-17.6l6.2-25.3l6.6-27.1c0.8-3.5,2.9-6.4,5.6-8.3c3.3-2.5,7.7-3.5,12-2.4l5.8,1.4
			C-861.8,47.8-857,55.7-858.9,63.5z"/>
	</g>
	<polygon points="-581.5,128.8 -581.5,168.1 -687.6,168.1 -687.6,7.4 -585.1,7.4 -585.1,50.1 -632.3,50.1 -632.3,69.5 -592.4,69.5 
		-595.7,106.8 -632.3,106.8 -632.3,128.8 	"/>
	<path d="M-475.6,110.1"/>
	<polygon points="-698.3,167.4 -698.3,125.9 -701.9,167.4 	"/>
	<g>
		<path d="M-323.7,29.4c-11.4-12.8-30.1-19.2-56.5-19.2s-45.2,6.5-56.6,19.5C-448.3,42.6-454,63.4-454,92.1
			c0,28.7,5.8,49.9,17.3,63.5c11.4,13.7,30.1,20.5,56.1,20.5c25.9,0,44.8-6.9,56.4-20.7c11.6-13.8,17.5-35,17.5-63.7
			C-306.8,62.8-312.4,42.1-323.7,29.4z M-355.8,70.1l-6.1,25l-6.7,27.5c-1,4.4-3.9,7.8-7.8,9.6l-0.1,0.1c-2.9,1.4-6.3,1.9-9.7,1
			l-5.8-1.4c-7.8-1.9-12.7-9.8-10.7-17.6l6.2-25.3l6.6-27.1c0.8-3.5,2.9-6.4,5.6-8.3c3.3-2.5,7.7-3.5,12-2.4l5.8,1.4
			C-358.8,54.4-353.9,62.3-355.8,70.1z"/>
	</g>
	<g>
		<path d="M-167.3,29.4c-11.4-12.8-30.1-19.2-56.5-19.2s-45.2,6.5-56.6,19.5c-11.5,12.9-17.3,33.7-17.3,62.4
			c0,28.7,5.8,49.9,17.3,63.5c11.4,13.7,30.1,20.5,56.1,20.5c25.9,0,44.8-6.9,56.4-20.7c11.6-13.8,17.5-35,17.5-63.7
			C-150.3,62.8-156,42.1-167.3,29.4z M-199.4,70.1l-6.1,25l-6.7,27.5c-1,4.4-3.9,7.8-7.8,9.6l-0.1,0.1c-2.9,1.4-6.3,1.9-9.7,1
			l-5.8-1.4c-7.8-1.9-12.7-9.8-10.7-17.6l6.2-25.3l6.6-27.1c0.8-3.5,2.9-6.4,5.6-8.3c3.3-2.5,7.7-3.5,12-2.4l5.8,1.4
			C-202.3,54.4-197.5,62.3-199.4,70.1z"/>
	</g>
</g>
</svg>
