<?xml version="1.0" encoding="utf-8"?>
<!-- Generator: Adobe Illustrator 28.2.0, SVG Export Plug-In . SVG Version: 6.00 Build 0)  -->
<svg version="1.1" id="Camada_1" xmlns="http://www.w3.org/2000/svg" xmlns:xlink="http://www.w3.org/1999/xlink" x="0px" y="0px"
	 viewBox="0 0 842.6 848.6" style="enable-background:new 0 0 842.6 848.6;" xml:space="preserve">
<path d="M421.8,839.2c-228.3,0-414-185.7-414-414s185.7-414,414-414s414,185.7,414,414S650,839.2,421.8,839.2z M421.8,56.2
	c-203.5,0-369,165.5-369,369s165.5,369,369,369s369-165.5,369-369S625.2,56.2,421.8,56.2z"/>
<path d="M655.9,235.9l-2-7.3c-0.6-2.3-2.8-4.8-4.9-5.4l-6.4-2c-97.7-31.1-187.6-38-258.4-35.7c-24.8,0.8-47.3,2.7-66.9,5.1
	c-1.5,0.2-3,0.4-4.5,0.6c-79.6,10.3-128.6,29.5-130.6,30.4l-7.2,2.9c-2.3,0.9-4.4,3.9-4.7,6.7l-0.9,8.7
	c-9.6,92.8-2.4,176.7,21.4,249.4c19.3,58.7,49.3,110.1,89.3,152.7c67.9,72.4,126.2,94.2,129.3,95.1l4.4,1.3c1.4,0.4,3.6,0.1,4.9-0.6
	l4.1-2.3c48-27.3,103.4-59.9,136.9-97.5c15-16.8,28.4-34.5,40.4-53.2c1.9-3,3.8-6.1,5.7-9.2c28-46.5,46.8-98.5,55.9-154.7
	C677.9,319.1,656.8,239.2,655.9,235.9z M418.6,690.2c-1.5,0.9-4,1.1-5.6,0.5c-20.6-8.1-60.7-31.7-107.8-82.5
	c-35.2-38-61.7-83.6-78.6-135.8C206.9,411.8,200,342,205.9,264.8c0.2-3.1,2.6-6.3,5.2-7.1c17.8-5.6,49.4-14.2,91.1-20.6
	c4.4-0.7,8.1,3,8.1,8.1c-0.2,59.4,8.4,114.2,25.7,163.5c7.1,20.2,15.7,39.5,25.7,57.9c7.1,13.1,15,25.7,23.6,37.8
	c12.1,17,25.5,32.9,40.4,47.7c29,28.9,58.9,49.2,83.8,63c5.4,3,6.2,9.1,1.5,13.6C487.2,651.4,449.2,672,418.6,690.2z M568.1,559.6
	c-5,7.7-10.3,15.3-15.8,22.6c-1.8,2.4-5.5,3.4-8.1,2.2c-24.7-11.8-59.6-32.3-93.1-65.7l-0.1-0.1c-7.7-7.7-5.5-14.2,4.7-14.2h130
	c6.5,0,9.4,5.4,6.3,11.9C585,531.3,577,545.8,568.1,559.6z M623.2,414.6c-2.3,13.6-5.2,26.9-8.7,39.9c-0.8,3.1-3.9,5.7-6.8,5.7
	H408.1c-2,0-4.7-1.6-5.8-3.5c-12.2-20.1-22.3-41.6-30.4-64.4c-0.1-0.2-0.1-0.4-0.2-0.6c-2.1-6.1,0.9-11.1,6.6-11.1h241.1
	c4.4,0,7.6,4.1,7.1,9.1C625.7,397.8,624.6,406.1,623.2,414.6z M355.8,329.9c-5-28.6-7.2-58.9-6.8-90.8c0.1-4.1,3.1-7.7,6.7-7.9
	c67.7-5,159.7-2.1,261.4,27.9c2.4,0.7,4.7,3.5,5.2,6.2c2.5,13.8,5.5,35.7,6.4,62.6c0.1,4.6-3.1,8.4-7.1,8.4H362.8
	C359.6,336.4,356.5,333.5,355.8,329.9z"/>
</svg>
