<?xml version="1.0" encoding="utf-8"?>
<!-- Generator: Adobe Illustrator 27.9.4, SVG Export Plug-In . SVG Version: 9.03 Build 54784)  -->
<svg version="1.1" id="Camada_1" xmlns="http://www.w3.org/2000/svg" xmlns:xlink="http://www.w3.org/1999/xlink" x="0px" y="0px"
	 viewBox="0 0 1920 1080" style="enable-background:new 0 0 1920 1080;" xml:space="preserve">
<style type="text/css">
	.st0{fill:#E9E452;}
</style>
<g>
	<polygon class="st0" points="1006.5,539.9 1005.5,539.9 1005.5,539.8 	"/>
	<g>
		<path class="st0" d="M285.5,734C190.4,734,113,656.6,113,561.5s77.4-172.5,172.5-172.5s172.5,77.4,172.5,172.5
			S380.6,734,285.5,734z M285.5,407.8c-84.8,0-153.7,69-153.7,153.7s69,153.7,153.7,153.7s153.7-69,153.7-153.7
			S370.2,407.8,285.5,407.8z"/>
		<path class="st0" d="M383,482.7l-0.8-3c-0.3-1-1.2-2-2-2.3l-2.7-0.9c-40.7-13-78.1-15.8-107.6-14.9c-10.3,0.3-19.7,1.1-27.9,2.1
			c-0.6,0.1-1.3,0.2-1.9,0.2c-33.2,4.3-53.6,12.3-54.4,12.7l-3,1.2c-1,0.4-1.8,1.6-2,2.8l-0.4,3.6c-4,38.7-1,73.6,8.9,103.9
			c8,24.5,20.5,45.9,37.2,63.6c28.3,30.2,52.6,39.2,53.9,39.6l1.8,0.5c0.6,0.2,1.5,0.1,2.1-0.2l1.7-1c20-11.4,43.1-25,57-40.6
			c6.2-7,11.8-14.4,16.8-22.1c0.8-1.3,1.6-2.5,2.4-3.8c11.7-19.4,19.5-41,23.3-64.5C392.2,517.3,383.4,484.1,383,482.7z
			 M284.1,671.9c-0.6,0.4-1.7,0.5-2.3,0.2c-8.6-3.4-25.3-13.2-44.9-34.4c-14.7-15.8-25.7-34.8-32.8-56.6
			c-8.2-25.2-11.1-54.3-8.6-86.5c0.1-1.3,1.1-2.6,2.2-3c7.4-2.3,20.6-5.9,38-8.6c1.8-0.3,3.4,1.2,3.4,3.4
			c-0.1,24.8,3.5,47.6,10.7,68.1c3,8.4,6.5,16.5,10.7,24.1c3,5.5,6.3,10.7,9.8,15.7c5,7.1,10.6,13.7,16.8,19.9
			c12.1,12,24.5,20.5,34.9,26.2c2.3,1.3,2.6,3.8,0.6,5.6C312.7,655.8,296.9,664.3,284.1,671.9z M346.4,617.5
			c-2.1,3.2-4.3,6.4-6.6,9.4c-0.8,1-2.3,1.4-3.4,0.9c-10.3-4.9-24.8-13.5-38.8-27.4c0,0,0,0-0.1-0.1c-3.2-3.2-2.3-5.9,2-5.9h54.1
			c2.7,0,3.9,2.2,2.6,5C353.5,605.7,350.1,611.8,346.4,617.5z M369.4,557.1c-0.9,5.7-2.1,11.2-3.6,16.6c-0.4,1.3-1.6,2.4-2.8,2.4
			h-83.1c-0.8,0-2-0.6-2.4-1.4c-5.1-8.4-9.3-17.3-12.6-26.8c0-0.1-0.1-0.2-0.1-0.3c-0.9-2.5,0.4-4.6,2.8-4.6h100.4
			c1.8,0,3.2,1.7,2.9,3.8C370.4,550.1,370,553.6,369.4,557.1z M258,521.8c-2.1-11.9-3-24.5-2.8-37.8c0-1.7,1.3-3.2,2.8-3.3
			c28.2-2.1,66.5-0.9,108.9,11.6c1,0.3,2,1.5,2.2,2.6c1,5.8,2.3,14.9,2.7,26.1c0.1,1.9-1.3,3.5-3,3.5H260.9
			C259.6,524.5,258.3,523.3,258,521.8z"/>
	</g>
	<g>
		<path class="st0" d="M850.3,619l-4.6,53.2h-97.1c-14.8,0-26.7-11.9-26.7-26.7V493c0-0.5,0-1,0.1-1.5V467h71v152H850.3z"/>
		<polygon class="st0" points="1151,467 1151,521.8 1086,521.8 1086,549.9 1131.4,549.9 1127.2,597.8 1086,597.8 1086,673.1 
			1015,673.1 1015,467 		"/>
		<path class="st0" d="M1717.1,523.1h-43.8v150h-70.7v-150h-46.1l3-56.1h161.7L1717.1,523.1z"/>
		<g>
			<path class="st0" d="M685.4,486.6c-14.6-16.4-38.7-24.6-72.4-24.6c-33.8,0-57.9,8.3-72.6,25c-14.7,16.6-22.2,43.3-22.2,80.1
				c0,36.8,7.4,64.1,22.2,81.5c14.7,17.5,38.7,26.3,72,26.3c33.2,0,57.4-8.9,72.3-26.6c14.9-17.7,22.4-44.9,22.4-81.8
				C707.1,529.6,699.9,502.9,685.4,486.6z M644.2,538.9l-7.9,32l-8.6,35.3c-1.3,5.6-5.1,9.9-9.9,12.3l-0.1,0.1
				c-3.8,1.8-8.1,2.4-12.5,1.3l-7.5-1.7c-10-2.4-16.2-12.6-13.8-22.6l7.9-32.5l8.5-34.8c1-4.5,3.7-8.2,7.2-10.6
				c4.2-3.2,9.9-4.5,15.4-3.1l7.4,1.8C640.4,518.7,646.6,528.9,644.2,538.9z"/>
		</g>
		<polygon class="st0" points="1000.1,622.7 1000.1,673.1 863.9,673.1 863.9,467 995.4,467 995.4,521.8 935,521.8 935,546.7 
			986.1,546.7 981.9,594.5 935,594.5 935,622.7 		"/>
		<path class="st0" d="M1136,598.7"/>
		<polygon class="st0" points="850.3,672.2 850.3,619 845.6,672.2 		"/>
		<g>
			<path class="st0" d="M1330.8,495.2c-14.6-16.4-38.7-24.6-72.4-24.6c-33.8,0-57.9,8.3-72.6,25c-14.7,16.6-22.2,43.3-22.2,80.1
				c0,36.8,7.4,64.1,22.2,81.5c14.7,17.5,38.7,26.3,72,26.3c33.2,0,57.4-8.9,72.3-26.6c14.9-17.7,22.4-44.9,22.4-81.8
				C1352.6,538.1,1345.3,511.5,1330.8,495.2z M1289.7,547.4l-7.9,32l-8.6,35.3c-1.3,5.6-5.1,9.9-9.9,12.3l-0.1,0.1
				c-3.8,1.8-8.1,2.4-12.5,1.3l-7.5-1.7c-10-2.4-16.2-12.6-13.8-22.6l7.9-32.5l8.5-34.8c1-4.5,3.7-8.2,7.2-10.6
				c4.2-3.2,9.9-4.5,15.4-3.1l7.4,1.8C1285.9,527.3,1292.1,537.4,1289.7,547.4z"/>
		</g>
		<g>
			<path class="st0" d="M1531.6,495.2c-14.6-16.4-38.7-24.6-72.4-24.6c-33.8,0-57.9,8.3-72.6,25c-14.7,16.6-22.2,43.3-22.2,80.1
				c0,36.8,7.4,64.1,22.2,81.5c14.7,17.5,38.7,26.3,72,26.3c33.2,0,57.4-8.9,72.3-26.6c14.9-17.7,22.4-44.9,22.4-81.8
				C1553.3,538.1,1546,511.5,1531.6,495.2z M1490.4,547.4l-7.9,32l-8.6,35.3c-1.3,5.6-5.1,9.9-9.9,12.3l-0.1,0.1
				c-3.8,1.8-8.1,2.4-12.5,1.3l-7.5-1.7c-10-2.4-16.2-12.6-13.8-22.6l7.9-32.5l8.5-34.8c1-4.5,3.7-8.2,7.2-10.6
				c4.2-3.2,9.9-4.5,15.4-3.1l7.4,1.8C1486.6,527.3,1492.8,537.4,1490.4,547.4z"/>
		</g>
	</g>
	<g>
		<path class="st0" d="M1776.3,435.6h-10.7v24.5h-3.3v-24.5h-10.7v-2.7h24.7V435.6z"/>
		<path class="st0" d="M1781.3,432.9h2.9l10.5,13.5l10.5-13.5h2.7v27.2h-3.3v-21.8l-10.2,12.8l-10.1-12.8v21.8h-3V432.9z"/>
	</g>
</g>
</svg>
