<?xml version="1.0" encoding="utf-8"?>
<!-- Generator: Adobe Illustrator 28.2.0, SVG Export Plug-In . SVG Version: 6.00 Build 0)  -->
<svg version="1.1" id="Layer_1" xmlns="http://www.w3.org/2000/svg" xmlns:xlink="http://www.w3.org/1999/xlink" x="0px" y="0px"
	 viewBox="0 0 842 848" style="enable-background:new 0 0 842 848;" xml:space="preserve">
<style type="text/css">
	.st0{fill:#FFFF00;}
</style>
<g>
	<path class="st0" d="M805.8,902.9H36.5c-20.4,0-37-16.6-37-37V37c0-20.4,16.6-37,37-37h769.3c20.4,0,37,16.6,37,37v828.9
		C842.8,886.3,826.2,902.9,805.8,902.9z"/>
	<g>
		<path d="M699.6,315H369c-7.8,0-12,6.9-9.1,15.2c0.1,0.2,0.2,0.6,0.4,0.8c10.9,31.4,24.9,60.8,41.6,88.4c1.7,2.5,5.3,4.7,8.1,4.7
			h273.6c3.8,0,8.1-3.5,9.3-7.8c4.8-17.8,8.8-36.1,11.9-54.7c1.9-11.5,3.4-23,4.6-34.2C709.9,320.4,705.6,314.9,699.6,315z"/>
		<path d="M653.1,484.5H474.9c-14.1,0-17.1,8.9-6.5,19.5c0.1,0.1,0.1,0.1,0.2,0.2c45.9,45.8,93.7,74,127.6,90.1
			c3.6,1.8,8.7,0.4,11.2-2.9c7.7-10.1,14.9-20.4,21.6-31c12.3-19,23.1-38.8,32.7-59.4C666,492,662,484.7,653.1,484.5z"/>
		<path d="M548.8,636.3c-34.3-18.9-75.2-46.7-115-86.3c-20.3-20.2-38.7-42.1-55.3-65.3c-11.8-16.6-22.6-33.8-32.3-51.8
			c-13.7-25.1-25.5-51.6-35.2-79.4c-23.7-67.6-35.5-142.6-35.2-224.1c0-7-5.1-12-11.1-11.1c-57.2,8.7-100.5,20.4-124.8,28.1
			c-3.6,1.1-6.7,5.5-7.1,9.7c-8.3,105.9,1.3,201.7,28.1,284.8c23.3,71.4,59.5,134.1,107.9,186.1c64.6,69.5,119.5,101.9,147.8,113
			c2.2,0.8,5.7,0.5,7.7-0.7c42-24.9,93.9-53.2,126.6-84.4C557.1,648.8,556.2,640.4,548.8,636.3z"/>
		<path d="M696.3,148.4c-139.4-41.1-265.5-45.1-358.3-38.2c-4.9,0.5-9,5.3-9.1,10.9c-0.6,43.7,2.5,85.1,9.3,124.3
			c0.8,4.8,5.2,8.9,9.6,8.9h354.7c5.7,0,10-5.2,9.7-11.5c-1.2-37-5.4-66.9-8.8-85.9C702.8,153.2,699.6,149.3,696.3,148.4z"/>
	</g>
</g>
</svg>
