<?xml version="1.0" encoding="utf-8"?>
<!-- Generator: Adobe Illustrator 28.2.0, SVG Export Plug-In . SVG Version: 6.00 Build 0)  -->
<svg version="1.1" id="Layer_1" xmlns="http://www.w3.org/2000/svg" xmlns:xlink="http://www.w3.org/1999/xlink" x="0px" y="0px"
	 viewBox="0 0 842 848" style="enable-background:new 0 0 842 848;" xml:space="preserve">
<style type="text/css">
	.st0{fill:none;stroke:#000000;stroke-width:10;stroke-miterlimit:10;}
</style>
<g>
	<g>
		<path class="st0" d="M694.7,316.9H369.9c-7.7,0-11.8,6.7-9,14.9c0.1,0.2,0.2,0.6,0.4,0.8c10.8,30.8,24.5,59.8,40.9,86.8
			c1.7,2.5,5.2,4.6,7.9,4.6h268.8c3.8,0,7.9-3.4,9.1-7.7c4.7-17.5,8.6-35.4,11.7-53.8c1.9-11.3,3.3-22.6,4.5-33.6
			C704.9,322.2,700.6,316.8,694.7,316.9z"/>
		<path class="st0" d="M649.1,483.4H474c-13.8,0-16.8,8.7-6.4,19.1c0.1,0.1,0.1,0.1,0.2,0.2c45.1,45,92,72.7,125.4,88.5
			c3.5,1.8,8.5,0.4,11-2.8c7.6-9.9,14.7-20.1,21.3-30.5c12.1-18.7,22.7-38.2,32.1-58.4C661.8,490.9,657.9,483.7,649.1,483.4z"/>
		<path class="st0" d="M546.5,632.7c-33.7-18.6-73.9-45.8-113-84.8c-20-19.9-38-41.4-54.4-64.2c-11.6-16.3-22.2-33.2-31.8-50.9
			c-13.5-24.7-25.1-50.7-34.6-78c-23.3-66.4-34.9-140.1-34.6-220.3c0-6.9-5-11.8-10.9-10.9c-56.2,8.5-98.8,20.1-122.7,27.6
			c-3.5,1.1-6.6,5.4-7,9.6c-8.2,104.1,1.3,198.2,27.6,279.8c22.9,70.2,58.5,131.8,106,182.9c63.5,68.3,117.5,100.1,145.2,111.1
			c2.1,0.8,5.6,0.5,7.6-0.7c41.2-24.5,92.3-52.2,124.4-82.9C554.7,644.9,553.9,636.7,546.5,632.7z"/>
		<path class="st0" d="M691.5,153.2c-136.9-40.4-260.9-44.3-352.1-37.6c-4.8,0.5-8.9,5.2-9,10.8c-0.6,42.9,2.5,83.7,9.1,122.2
			c0.8,4.7,5.1,8.7,9.5,8.7h348.6c5.6,0,9.8-5.1,9.6-11.3c-1.2-36.4-5.3-65.7-8.6-84.4C697.9,157.9,694.7,154.1,691.5,153.2z"/>
	</g>
</g>
</svg>
