<?xml version="1.0" encoding="utf-8"?>
<!-- Generator: Adobe Illustrator 28.2.0, SVG Export Plug-In . SVG Version: 6.00 Build 0)  -->
<svg version="1.1" id="Layer_1" xmlns="http://www.w3.org/2000/svg" xmlns:xlink="http://www.w3.org/1999/xlink" x="0px" y="0px"
	 viewBox="0 0 842 848" style="enable-background:new 0 0 842 848;" xml:space="preserve">
<g>
	<g>
		<path d="M734.2,312.1H362.5c-8.8,0-13.5,7.7-10.3,17c0.1,0.3,0.3,0.7,0.4,0.9c12.3,35.3,28,68.4,46.8,99.4
			c1.9,2.8,5.9,5.3,9.1,5.3h307.6c4.3,0,9.1-3.9,10.4-8.8c5.4-20,9.9-40.6,13.4-61.5c2.2-13,3.8-25.8,5.1-38.4
			C745.8,318.2,740.9,312,734.2,312.1z"/>
		<path d="M682,502.6H481.6c-15.8,0-19.2,10-7.3,21.9c0.1,0.1,0.1,0.1,0.3,0.3C526.2,576.3,579.9,607.9,618,626
			c4.1,2,9.7,0.4,12.6-3.2c8.7-11.4,16.8-23,24.3-34.9c13.8-21.4,26-43.7,36.8-66.8C696.4,511.1,692,502.9,682,502.6z"/>
		<path d="M564.6,673.4c-38.5-21.2-84.5-52.5-129.2-97.1c-22.8-22.7-43.5-47.3-62.2-73.4c-13.2-18.7-25.4-38-36.4-58.3
			c-15.4-28.3-28.7-58-39.6-89.2c-26.6-76-39.9-160.3-39.6-252c0-7.8-5.7-13.5-12.4-12.4c-64.4,9.7-113,23-140.3,31.6
			c-4.1,1.2-7.6,6.2-8,11c-9.3,119.1,1.5,226.7,31.6,320.1C154.7,534,195.4,604.4,249.8,663c72.6,78.1,134.4,114.5,166.1,127.1
			c2.4,0.9,6.4,0.5,8.7-0.8c47.2-28,105.6-59.8,142.4-94.9C574,687.4,573,678,564.6,673.4z"/>
		<path d="M730.5,124.8C573.8,78.5,432,74.1,327.6,81.8c-5.5,0.5-10.1,5.9-10.3,12.3c-0.7,49.1,2.8,95.7,10.4,139.8
			c0.9,5.4,5.8,10,10.8,10h398.8c6.4,0,11.2-5.8,11-13c-1.4-41.6-6.1-75.2-9.9-96.5C737.8,130.2,734.2,125.8,730.5,124.8z"/>
	</g>
</g>
</svg>
